# xmcd CD database file
#
# Track frame offsets:
#	150
#	15150
#	34495
#	57820
#	79952
#	104670
#	122665
#	148147
#	171552
#	189895
#	213177
#
# Disc length: 3115 seconds
#
# Revision: 3
# Processed by: cddbd v1.5.2PL0 Copyright (c) Steve Scherf et al.
# Submitted via: CDex 1.72
#
DISCID=980c290b
DTITLE=Muldaur, Maria (USA-98-Southland of the Heart-bls) - Southland of the heart
DYEAR=1998
DGENRE=Blues
TTITLE0=Ring Me Up
TTITLE1=GetUp, Get Ready
TTITLE2=Southland Of The Heart
TTITLE3=Latersville
TTITLE4=Think About You
TTITLE5=There's A Devil On the Loose
TTITLE6=Fool's Paradise
TTITLE7=One Short Life
TTITLE8=If I Were You
TTITLE9=Someday When We're Both Alone
TTITLE10=Blues Gives a Lesson
EXTD=YEAR: 1998
EXTT0=
EXTT1=
EXTT2=
EXTT3=
EXTT4=
EXTT5=
EXTT6=
EXTT7=
EXTT8=
EXTT9=
EXTT10=
PLAYORDER=
